HIERARCHY
ROOT Hips
{
	OFFSET -0.001795 -0.223333 0.028219
	CHANNELS 6 Xposition Yposition Zposition Zrotation Yrotation Xrotation 
	JOINT LeftUpLeg
	{
		OFFSET 0.069520 -0.091406 -0.006815
		CHANNELS 3 Zrotation Yrotation Xrotation
		JOINT LeftLeg
		{
			OFFSET 0.034277 -0.375199 -0.004496
			CHANNELS 3 Zrotation Yrotation Xrotation
			JOINT LeftFoot
			{
				OFFSET -0.013596 -0.397961 -0.043693
				CHANNELS 3 Zrotation Yrotation Xrotation
				JOINT LeftToe
				{
					OFFSET 0.026358 -0.055791 0.119288
					CHANNELS 3 Zrotation Yrotation Xrotation
					End Site
					{
						OFFSET 0.000000 0.000000 0.000000
					}
				}
			}
		}
	}
	JOINT RightUpLeg
	{
		OFFSET -0.067670 -0.090522 -0.004320
		CHANNELS 3 Zrotation Yrotation Xrotation
		JOINT RightLeg
		{
			OFFSET -0.038290 -0.382569 -0.008850
			CHANNELS 3 Zrotation Yrotation Xrotation
			JOINT RightFoot
			{
				OFFSET 0.015774 -0.398415 -0.042312
				CHANNELS 3 Zrotation Yrotation Xrotation
				JOINT RightToe
				{
					OFFSET -0.025372 -0.048144 0.123348
					CHANNELS 3 Zrotation Yrotation Xrotation
					End Site
					{
						OFFSET 0.000000 0.000000 0.000000
					}
				}
			}
		}
	}
	JOINT Spine
	{
		OFFSET -0.002533 0.108963 -0.026696
		CHANNELS 3 Zrotation Yrotation Xrotation
		JOINT Spine1
		{
			OFFSET 0.005487 0.135180 0.001092
			CHANNELS 3 Zrotation Yrotation Xrotation
			JOINT Spine2
			{
				OFFSET 0.001457 0.052922 0.025425
				CHANNELS 3 Zrotation Yrotation Xrotation
				JOINT Neck
				{
					OFFSET -0.002778 0.213870 -0.042857
					CHANNELS 3 Zrotation Yrotation Xrotation
					JOINT Head
					{
						OFFSET 0.005152 0.064970 0.051349
						CHANNELS 3 Zrotation Yrotation Xrotation
						End Site
						{
							OFFSET 0.000000 0.000000 0.000000
						}
					}
				}
				JOINT LeftShoulder
				{
					OFFSET 0.078845 0.121749 -0.034090
					CHANNELS 3 Zrotation Yrotation Xrotation
					JOINT LeftArm
					{
						OFFSET 0.090977 0.030469 -0.008868
						CHANNELS 3 Zrotation Yrotation Xrotation
						JOINT LeftForeArm
						{
							OFFSET 0.259612 -0.012772 -0.027456
							CHANNELS 3 Zrotation Yrotation Xrotation
							JOINT LeftHand
							{
								OFFSET 0.249234 0.008986 -0.001171
								CHANNELS 3 Zrotation Yrotation Xrotation
								End Site
								{
									OFFSET 0.000000 0.000000 0.000000
								}
							}
						}
					}
				}
				JOINT RightShoulder
				{
					OFFSET -0.081759 0.118833 -0.038615
					CHANNELS 3 Zrotation Yrotation Xrotation
					JOINT RightArm
					{
						OFFSET -0.096012 0.032551 -0.009143
						CHANNELS 3 Zrotation Yrotation Xrotation
						JOINT RightForeArm
						{
							OFFSET -0.253742 -0.013329 -0.021401
							CHANNELS 3 Zrotation Yrotation Xrotation
							JOINT RightHand
							{
								OFFSET -0.255298 0.007772 -0.005559
								CHANNELS 3 Zrotation Yrotation Xrotation
								End Site
								{
									OFFSET 0.000000 0.000000 0.000000
								}
							}
						}
					}
				}
			}
		}
	}
}
MOTION
Frames: 13
Frame Time: 0.050000
0.013593 0.962441 -0.018208 -2.624768 10.545939 8.153514 5.390129 -0.434637 -3.519665 4.690737 0.161441 -8.690255 -2.784892 2.893882 15.394253 0.000000 0.000000 0.000000 -2.585747 0.750289 -9.176826 -2.231218 0.328391 1.157840 -0.236974 -3.770535 11.634805 0.000000 0.000000 0.000000 -3.606964 0.117527 -4.140125 3.833564 -1.631866 -2.084842 2.563454 -9.536914 -7.308504 -4.054191 3.106940 -18.692268 0.000000 0.000000 0.000000 -1.968319 -17.693060 6.636687 -26.603640 -49.271234 8.151041 41.035487 -69.542572 -24.665398 0.000000 0.000000 0.000000 3.671957 21.366973 7.377098 27.233596 39.828456 5.952421 -111.218134 76.482674 -96.126315 0.000000 0.000000 0.000000 
0.015026 0.963250 -0.018663 -2.743941 11.208923 8.041389 5.171548 -0.431465 -3.509787 5.139876 0.188363 -9.300177 -3.451115 2.363757 16.243305 0.000000 0.000000 0.000000 -2.501068 0.730483 -8.898135 -2.051583 0.307156 1.158969 -0.595847 -4.438949 11.912121 0.000000 0.000000 0.000000 -3.177128 0.116078 -4.188202 3.409408 -1.426406 -2.174242 2.291948 -8.391774 -7.204492 -2.630515 2.487439 -18.505722 0.000000 0.000000 0.000000 -2.821937 -15.948291 5.888564 -30.030130 -45.464991 8.232142 43.296934 -70.343585 -27.128229 0.000000 0.000000 0.000000 2.551570 20.743628 7.232418 24.317871 41.912637 5.486557 -106.145702 71.797605 -84.921893 0.000000 0.000000 0.000000 
0.016599 0.963702 -0.019262 -2.604950 12.086418 8.076669 4.728243 -0.438590 -3.818771 5.457291 0.178363 -9.241592 -3.922367 1.815572 16.285300 0.000000 0.000000 0.000000 -2.939805 0.702512 -9.010506 -1.969111 0.313579 1.483521 -0.746733 -4.620340 11.979810 0.000000 0.000000 0.000000 -3.012629 0.113917 -4.067210 3.326465 -1.327368 -2.768349 1.474051 -6.954645 -6.833424 -1.594671 2.074829 -17.379409 0.000000 0.000000 0.000000 -3.294658 -13.312799 4.694532 -34.678726 -41.469658 8.410406 41.036253 -72.639531 -27.262038 0.000000 0.000000 0.000000 0.717121 19.616390 6.866036 21.255148 43.582217 4.847033 -99.640985 66.064942 -71.090759 0.000000 0.000000 0.000000 
0.018101 0.963989 -0.020240 -2.522966 13.199078 7.997051 4.820743 -0.458851 -4.026071 5.355905 0.192735 -9.495054 -4.546765 1.194340 16.597339 0.000000 0.000000 0.000000 -3.109620 0.654699 -8.585970 -1.576077 0.245879 1.107957 -1.267517 -5.516045 12.176117 0.000000 0.000000 0.000000 -2.559688 0.111386 -4.074914 2.719049 -1.068675 -2.552414 0.823329 -5.494927 -6.877769 -0.590663 1.704289 -17.197991 0.000000 0.000000 0.000000 -4.236075 -11.439106 3.785023 -37.900744 -36.821269 7.709575 37.022463 -76.240456 -26.683116 0.000000 0.000000 0.000000 -0.623973 18.715783 6.570076 17.257487 44.094562 3.707342 -93.130465 58.635063 -56.285266 0.000000 0.000000 0.000000 
0.019281 0.964481 -0.021769 -2.261035 14.473156 8.056892 4.842221 -0.490829 -4.466022 5.134986 0.180806 -9.275451 -5.147640 0.510056 16.642642 0.000000 0.000000 0.000000 -3.353709 0.639706 -8.870907 -1.682758 0.284950 1.651959 -2.011432 -6.784856 12.196073 0.000000 0.000000 0.000000 -2.505607 0.104808 -3.608525 2.461047 -0.858746 -3.490135 0.051615 -4.170954 -6.240916 0.826752 1.124727 -17.160797 0.000000 0.000000 0.000000 -4.997957 -9.777804 2.919415 -40.427579 -31.878640 6.495995 28.012559 -79.298607 -21.505999 0.000000 0.000000 0.000000 -2.075356 17.607381 6.143974 13.236327 44.728056 2.550479 -84.337019 50.130948 -40.344962 0.000000 0.000000 0.000000 
0.020297 0.964979 -0.023620 -2.072536 15.836933 8.102592 4.952134 -0.545874 -5.290212 4.840116 0.153126 -8.697005 -5.951752 -0.520536 16.611779 0.000000 0.000000 0.000000 -3.521342 0.605578 -8.750516 -1.664709 0.287178 1.746163 -2.783387 -8.106774 12.223591 0.000000 0.000000 0.000000 -1.892705 0.100674 -3.355350 1.851381 -0.580874 -3.498561 -1.107109 -2.680664 -5.958820 2.059600 0.653996 -17.028999 0.000000 0.000000 0.000000 -5.750997 -8.537061 2.154905 -41.198385 -27.001635 4.905545 2.427312 -81.812644 -1.324789 0.000000 0.000000 0.000000 -4.288060 16.074939 5.444232 9.163321 45.511332 1.462027 -76.861026 40.773659 -27.081479 0.000000 0.000000 0.000000 
0.021160 0.965506 -0.025561 -2.063513 16.546936 7.952440 4.973529 -0.573748 -5.746632 4.613865 0.114759 -7.863412 -6.069702 -0.909246 16.021809 0.000000 0.000000 0.000000 -3.784623 0.573816 -8.745464 -1.384702 0.260019 2.108884 -3.460490 -9.362717 12.852608 0.000000 0.000000 0.000000 -1.596192 0.092209 -2.875630 1.213258 -0.225011 -4.383712 -1.728747 -0.878702 -4.763199 3.820925 -0.032997 -17.614577 0.000000 0.000000 0.000000 -5.952479 -7.413365 1.490966 -41.733985 -22.515778 3.335788 -32.608722 -81.664421 28.055683 0.000000 0.000000 0.000000 -6.381165 15.055101 4.848193 4.518092 45.991752 0.126032 -66.889815 30.051984 -14.876959 0.000000 0.000000 0.000000 
0.021957 0.965839 -0.027146 -2.131141 17.329402 7.781165 5.225959 -0.605124 -6.138707 4.143042 0.084743 -7.016452 -6.491556 -1.609927 15.754959 0.000000 0.000000 0.000000 -3.386730 0.580399 -8.476263 -1.485047 0.264950 1.826480 -4.306134 -10.898355 13.489251 0.000000 0.000000 0.000000 -0.865947 0.075895 -2.285692 0.535272 0.094998 -4.738774 -2.654011 0.892796 -4.002373 5.515495 -0.782338 -17.432265 0.000000 0.000000 0.000000 -6.074741 -6.687514 0.986120 -40.924774 -18.032885 1.744700 -58.978989 -78.496737 48.162613 0.000000 0.000000 0.000000 -8.510255 14.177760 4.233629 -0.834416 45.086747 -1.377357 -57.362618 21.357506 -7.313329 0.000000 0.000000 0.000000 
0.022755 0.966379 -0.028344 -2.129854 17.783554 7.495503 5.471666 -0.635073 -6.592606 3.589317 0.040712 -5.720077 -6.448607 -1.904285 15.040772 0.000000 0.000000 0.000000 -3.417779 0.554463 -8.159119 -1.381615 0.252953 1.915662 -4.885980 -11.940268 14.079058 0.000000 0.000000 0.000000 -0.467522 0.061008 -1.882629 -0.215318 0.424964 -4.937699 -3.102461 2.353781 -3.158481 7.107811 -1.413878 -18.018050 0.000000 0.000000 0.000000 -5.909548 -5.324959 0.364535 -40.291820 -13.998110 0.393299 -73.002069 -74.578893 56.393834 0.000000 0.000000 0.000000 -10.465952 13.924795 3.791273 -4.511500 43.530164 -2.247066 -46.936056 14.979033 -3.090774 0.000000 0.000000 0.000000 
0.023761 0.966677 -0.029082 -2.072893 18.084213 7.480660 5.652312 -0.654912 -6.852007 2.999877 0.023695 -4.849092 -6.244703 -1.894505 14.463013 0.000000 0.000000 0.000000 -3.225597 0.546675 -7.783176 -1.747062 0.297540 1.656631 -5.047417 -12.194285 14.648273 0.000000 0.000000 0.000000 -0.071776 0.049593 -1.690726 -0.480948 0.516047 -4.620239 -3.514723 3.914286 -2.819830 7.911964 -1.788643 -17.607058 0.000000 0.000000 0.000000 -5.134138 -3.863741 -0.120781 -39.337286 -10.868234 -0.617090 -78.566993 -70.170960 56.346089 0.000000 0.000000 0.000000 -13.011651 13.170077 3.079639 -6.612298 42.285418 -2.484760 -38.192342 12.216895 -1.500560 0.000000 0.000000 0.000000 
0.024976 0.966618 -0.029298 -2.019280 17.896915 7.394881 5.626782 -0.668457 -7.181799 2.766451 -0.015746 -3.768813 -5.793207 -2.083286 13.014000 0.000000 0.000000 0.000000 -3.078114 0.559766 -7.810141 -1.865398 0.331177 2.076845 -5.479332 -13.034676 14.600279 0.000000 0.000000 0.000000 0.099358 0.048796 -1.744056 -1.102410 0.747227 -4.221607 -3.177184 4.675298 -2.469240 8.520037 -2.089059 -17.632405 0.000000 0.000000 0.000000 -3.996004 -2.136325 -0.455959 -38.721196 -7.746844 -1.618712 -81.918003 -65.586068 54.479769 0.000000 0.000000 0.000000 -14.558876 13.337585 2.840321 -7.497512 40.787516 -2.530813 -32.541469 11.142518 -0.999179 0.000000 0.000000 0.000000 
0.026482 0.966317 -0.029222 -2.119333 17.617629 7.364955 5.574712 -0.669796 -7.281416 2.518633 -0.036584 -3.070195 -5.261875 -1.828335 12.065816 0.000000 0.000000 0.000000 -2.751894 0.561952 -7.392884 -2.327032 0.395383 1.985044 -5.529590 -13.169302 14.725334 0.000000 0.000000 0.000000 0.205617 0.044958 -1.671935 -1.129738 0.761388 -4.308511 -2.767528 5.512290 -2.074781 8.281257 -1.811045 -18.082199 0.000000 0.000000 0.000000 -2.779069 -0.297437 -0.754456 -38.023289 -5.988339 -2.207182 -85.342514 -60.621857 52.031912 0.000000 0.000000 0.000000 -15.952686 12.705921 2.381976 -6.178106 40.395305 -2.016327 -30.362755 11.186341 -0.881285 0.000000 0.000000 0.000000 
0.028050 0.965530 -0.028977 -2.308084 17.144805 7.380640 5.616317 -0.659681 -7.153054 2.676465 -0.059083 -2.818379 -4.965728 -1.724243 11.527972 0.000000 0.000000 0.000000 -2.542626 0.589291 -7.542139 -2.404280 0.398751 1.823496 -5.463245 -13.109020 14.780875 0.000000 0.000000 0.000000 0.190254 0.048104 -1.742896 -0.859445 0.630748 -4.066059 -2.494482 5.959370 -2.109775 8.073874 -1.761118 -17.697382 0.000000 0.000000 0.000000 -1.414832 0.930777 -0.751748 -36.933485 -5.315124 -2.385751 -89.324180 -57.658954 51.982623 0.000000 0.000000 0.000000 -16.076549 12.736526 2.360938 -4.481613 40.033700 -1.537373 -30.751023 12.284201 -1.104851 0.000000 0.000000 0.000000 
